<?xml version="1.0" standalone="no"?>
<!DOCTYPE svg PUBLIC "-//W3C//DTD SVG 20010904//EN"
 "http://www.w3.org/TR/2001/REC-SVG-20010904/DTD/svg10.dtd">
<svg version="1.0" xmlns="http://www.w3.org/2000/svg"
 width="32.000000pt" height="32.000000pt" viewBox="0 0 32.000000 32.000000"
 preserveAspectRatio="xMidYMid meet">

<g transform="translate(0.000000,32.000000) scale(0.100000,-0.100000)"
fill="#000000" stroke="none">
<path d="M45 230 c-3 -6 4 -10 18 -10 23 0 24 -1 14 -44 -7 -31 -17 -47 -33
-55 -32 -14 -31 -41 1 -41 15 0 31 9 40 24 14 21 21 23 93 21 79 -3 122 6 122
25 0 6 -5 8 -10 5 -6 -3 -13 1 -16 9 -9 23 -27 19 -21 -4 3 -11 1 -20 -4 -20
-5 0 -9 11 -9 25 0 18 7 28 25 35 28 10 34 40 9 40 -20 0 -59 -31 -60 -47 -3
-44 -6 -47 -16 -20 -13 36 -54 38 -70 2 -17 -38 -26 -30 -20 20 5 45 4 45 -26
45 -17 0 -34 -4 -37 -10z m121 -70 c0 -11 -4 -20 -8 -20 -4 0 -8 9 -8 20 0 11
4 20 8 20 4 0 8 -9 8 -20z m-106 -60 c0 -5 -4 -10 -10 -10 -5 0 -10 5 -10 10
0 6 5 10 10 10 6 0 10 -4 10 -10z"/>
</g>
</svg>
