<?xml version="1.0" standalone="no"?>
<!DOCTYPE svg PUBLIC "-//W3C//DTD SVG 20010904//EN"
 "http://www.w3.org/TR/2001/REC-SVG-20010904/DTD/svg10.dtd">
<svg version="1.0" xmlns="http://www.w3.org/2000/svg"
 width="1200.000000pt" height="600.000000pt" viewBox="0 0 1200.000000 600.000000"
 preserveAspectRatio="xMidYMid meet">

<g transform="translate(0.000000,600.000000) scale(0.100000,-0.100000)"
fill="#000000" stroke="none">
<path d="M2616 5984 c-3 -9 -6 -25 -6 -37 0 -27 -68 -265 -86 -299 -14 -27
-44 -39 -44 -17 0 21 -45 48 -80 49 -40 0 -80 -23 -80 -47 0 -10 -5 -13 -17
-8 -78 31 -139 8 -149 -56 -7 -44 -10 -46 -35 -23 -54 49 -126 -10 -148 -120
-7 -36 -14 -141 -14 -233 -2 -158 0 -173 25 -245 15 -43 32 -87 38 -99 19 -34
34 -228 19 -245 -8 -10 -10 -44 -5 -120 l7 -106 -35 40 c-20 22 -36 44 -36 49
0 16 -33 40 -80 59 -25 10 -47 21 -50 24 -13 18 -60 33 -139 46 -47 8 -89 14
-93 14 -16 0 -38 34 -38 58 0 28 31 82 82 140 34 40 39 97 9 107 -21 6 -80
-27 -155 -90 -80 -67 -83 -71 -96 -158 -7 -45 -21 -104 -31 -132 -24 -63 -24
-78 3 -172 38 -136 26 -382 -26 -522 -12 -34 -15 -67 -11 -145 7 -155 -34
-419 -101 -639 -13 -43 -24 -86 -24 -96 0 -10 -9 -44 -20 -75 -11 -32 -27
-114 -36 -183 -15 -112 -16 -137 -3 -242 23 -194 19 -270 -24 -382 -51 -134
-86 -285 -97 -419 -5 -63 -18 -164 -29 -225 -11 -60 -21 -125 -21 -142 0 -27
-4 -32 -20 -30 -11 2 -23 6 -26 10 -4 4 -20 7 -36 7 -15 0 -28 4 -28 8 0 13
-121 36 -175 34 -27 -1 -62 3 -78 9 -22 9 -31 9 -45 -4 -9 -8 -33 -17 -52 -19
-35 -3 -35 -3 -32 32 4 38 27 70 50 70 11 0 12 3 3 13 -6 8 -7 17 -2 23 10 10
19 67 28 181 8 112 -21 178 -124 281 -29 29 -53 57 -53 63 0 6 -10 9 -23 7
-20 -3 -22 0 -19 40 4 41 3 43 -22 36 -36 -9 -96 14 -133 49 -25 25 -30 35
-21 50 13 25 0 37 -16 15 -16 -22 -47 -34 -113 -43 l-53 -7 0 -1059 0 -1059
6000 0 6000 0 0 3000 0 3000 -1760 0 -1760 0 0 -40 0 -40 40 0 40 0 0 -80 0
-80 40 0 40 0 0 -80 0 -80 40 0 40 0 0 -80 0 -80 40 0 40 0 0 -40 0 -40 46 0
46 0 -7 -80 -7 -80 41 0 41 0 0 -120 0 -120 40 0 40 0 0 -120 0 -120 40 0 40
0 0 -40 0 -40 40 0 40 0 0 -40 0 -40 40 0 40 0 0 -40 0 -40 40 0 40 0 0 -40 0
-40 40 0 40 0 0 -40 0 -40 40 0 40 0 0 -40 0 -40 40 0 40 0 0 -40 0 -40 40 0
40 0 0 -274 0 -273 -80 -7 -80 -7 0 -120 c0 -112 -1 -119 -20 -119 -17 0 -20
-7 -20 -40 0 -36 -2 -40 -25 -40 -22 0 -25 -4 -25 -40 l0 -40 -40 0 -40 0 0
-80 0 -80 -35 0 -35 0 0 -120 0 -120 -40 0 -40 0 0 -80 c0 -73 -2 -80 -20 -80
-13 0 -20 -7 -20 -20 0 -11 -3 -20 -8 -20 -11 0 -29 50 -37 104 -4 27 -15 77
-25 110 -10 34 -22 84 -26 111 -3 28 -10 55 -14 60 -4 6 -13 43 -20 84 -7 41
-21 93 -31 115 -10 23 -19 56 -19 75 0 52 -23 154 -37 169 -17 18 -16 82 2
125 8 20 15 49 15 65 0 15 6 34 12 40 17 17 25 305 9 336 -5 11 -21 46 -34 76
-13 30 -30 60 -38 66 -16 13 -153 27 -246 25 -35 0 -63 3 -63 8 0 9 -53 31
-74 31 -7 0 -29 -16 -49 -35 -20 -19 -40 -35 -45 -35 -29 1 -87 100 -94 161
-12 106 -65 143 -108 74 -20 -33 -22 -44 -15 -121 4 -46 10 -84 14 -84 12 0
51 -89 51 -118 0 -15 7 -52 16 -82 9 -30 20 -76 25 -102 14 -69 33 -109 68
-142 21 -20 32 -42 37 -74 4 -28 16 -55 30 -69 13 -13 24 -30 24 -37 0 -7 3
-16 7 -20 4 -4 13 -37 20 -74 7 -37 19 -96 28 -132 9 -36 18 -130 21 -210 4
-92 11 -160 21 -186 13 -36 13 -59 3 -160 -26 -260 -24 -439 6 -632 5 -31 3
-33 -16 -27 -13 4 -31 0 -48 -11 -15 -10 -40 -26 -57 -35 -32 -16 -63 -71
-101 -174 -12 -33 -31 -85 -43 -115 -11 -30 -21 -68 -21 -85 0 -37 -10 -75
-19 -75 -4 0 -15 24 -26 52 -18 51 -42 81 -57 72 -10 -6 -49 15 -68 36 -11 12
-34 17 -82 19 -61 2 -68 0 -83 -22 -9 -14 -25 -27 -37 -30 -17 -5 -19 -11 -14
-39 4 -23 0 -40 -12 -55 -17 -23 -33 -27 -89 -25 -27 2 -31 6 -29 25 1 13 6
29 10 36 5 8 0 24 -13 42 -15 20 -21 43 -21 77 0 36 -5 54 -20 67 -11 10 -24
32 -29 49 l-8 31 -12 -28 c-6 -16 -11 -38 -10 -50 0 -12 3 -16 6 -9 5 14 33
17 33 3 0 -5 -6 -11 -12 -13 -8 -3 -12 -19 -10 -41 3 -35 2 -37 -26 -37 -29 0
-52 -29 -52 -65 0 -8 -4 -15 -10 -15 -5 0 -10 -13 -10 -29 0 -23 -6 -30 -25
-35 -14 -4 -23 -10 -20 -15 6 -11 -77 7 -89 20 -6 5 -19 9 -29 9 -11 0 -54 31
-97 68 -100 89 -152 115 -201 102 -20 -6 -45 -21 -55 -35 -17 -23 -25 -25 -95
-25 -59 0 -78 -3 -83 -15 -9 -24 -33 -17 -73 20 -29 27 -35 38 -25 44 21 13
-41 31 -103 31 -29 0 -72 -7 -95 -15 -23 -8 -56 -15 -72 -15 -27 0 -29 -2 -23
-23 16 -46 9 -84 -23 -123 -18 -22 -27 -41 -21 -44 5 -4 -10 -13 -33 -21 -24
-7 -58 -23 -76 -35 -25 -17 -39 -21 -60 -14 -16 4 -51 4 -78 0 -65 -10 -109
-5 -139 14 -13 9 -36 16 -50 16 -32 0 -43 28 -37 90 5 50 29 90 79 134 18 16
33 35 33 42 0 19 39 56 51 49 5 -4 9 5 8 22 -1 15 8 56 20 90 11 34 30 120 41
190 11 70 24 155 29 188 6 33 15 107 22 165 7 60 17 110 24 115 8 6 17 29 21
50 4 22 15 51 25 64 10 12 21 38 25 55 3 18 17 45 30 61 13 15 24 31 24 35 0
4 18 25 40 46 23 22 50 53 60 70 19 30 28 94 13 94 -5 0 -16 14 -25 30 -9 17
-24 30 -31 30 -8 0 -22 16 -31 35 -18 37 -24 39 -108 35 -33 -1 -49 3 -55 14
-4 8 -5 71 0 141 5 70 6 134 2 143 -16 43 -55 -53 -89 -223 -17 -82 -40 -141
-58 -147 -7 -3 -22 -2 -33 3 -61 24 -83 -6 -36 -50 29 -27 31 -34 31 -96 0
-36 5 -75 11 -86 8 -16 6 -29 -11 -61 -12 -22 -39 -109 -61 -192 -45 -168 -67
-237 -99 -311 -12 -27 -40 -102 -62 -165 -22 -63 -48 -128 -58 -145 -18 -29
-31 -67 -66 -190 -10 -37 -27 -69 -44 -85 -15 -14 -30 -38 -34 -53 -4 -15 -11
-25 -16 -22 -18 11 -11 68 12 92 12 13 17 23 10 23 -6 0 -18 8 -28 18 -10 9
-25 18 -33 19 -9 1 -26 5 -38 9 -16 4 -23 2 -24 -7 -5 -69 -9 -92 -26 -143
l-18 -59 -82 -31 c-46 -17 -110 -51 -144 -76 -73 -53 -179 -166 -179 -190 0
-9 -11 -22 -25 -28 -14 -6 -25 -16 -25 -22 0 -6 -6 -10 -12 -9 -33 4 -48 -2
-48 -21 0 -23 -29 -100 -39 -100 -3 0 -6 37 -6 83 -1 69 -5 90 -27 132 -14 28
-29 58 -32 68 -3 10 -10 16 -15 13 -6 -4 -8 24 -6 66 1 44 -2 83 -10 98 -25
50 -25 95 0 142 12 23 26 59 29 78 7 37 36 111 46 120 4 3 9 13 13 23 6 17 6
17 -18 0 -13 -10 -29 -28 -36 -41 -7 -12 -19 -22 -26 -22 -23 0 -27 30 -9 84
18 60 20 76 7 76 -5 0 -16 -19 -26 -42 -14 -37 -18 -40 -27 -25 -6 12 -7 27 0
45 18 47 21 62 16 62 -13 0 -48 -101 -50 -149 -3 -52 -9 -70 -19 -59 -13 13
-26 138 -20 194 7 67 -16 216 -42 271 -8 18 -13 39 -10 47 3 8 -3 26 -14 39
-10 14 -19 36 -19 49 -1 12 -7 34 -15 48 -8 14 -14 34 -15 44 0 11 -11 31 -24
45 -14 15 -28 40 -33 57 -5 19 -28 48 -58 74 -31 26 -56 58 -65 83 -11 31 -23
44 -45 52 -17 5 -32 13 -35 16 -12 15 -84 59 -97 59 -8 0 -28 13 -43 29 -16
16 -62 41 -104 56 -61 22 -93 28 -173 29 -180 2 -376 -62 -385 -127 -3 -25
-23 -21 -22 6 0 13 -7 17 -32 17 -33 0 -44 -13 -44 -54 0 -22 -17 -46 -32 -46
-4 0 -8 14 -8 30 0 31 -17 38 -55 24 -22 -9 -51 -70 -60 -129 -4 -27 -10 -44
-12 -37 -7 18 -23 15 -23 -5 0 -15 -2 -16 -9 -4 -8 12 -12 10 -22 -12 -7 -15
-20 -27 -31 -27 -14 0 -18 -8 -18 -31 0 -27 -2 -30 -15 -19 -8 7 -15 19 -15
26 0 8 -4 14 -9 14 -15 0 -17 -52 -5 -80 23 -48 25 -67 10 -73 -21 -8 -56 3
-56 19 0 8 -4 14 -10 14 -5 0 -10 -13 -10 -30 0 -19 -7 -33 -20 -40 -11 -6
-20 -19 -20 -30 0 -10 -5 -22 -11 -26 -6 -4 -9 -19 -5 -35 5 -27 4 -28 -14
-19 -37 20 -39 8 -10 -52 25 -52 25 -53 -2 -65 l-23 -10 25 -13 c28 -15 40
-29 40 -49 0 -7 -6 -11 -15 -7 -24 9 -35 -24 -18 -51 9 -13 17 -36 19 -51 1
-14 7 -28 13 -30 5 -2 25 -13 42 -25 38 -26 50 -50 23 -45 -23 4 -31 -41 -14
-81 6 -15 12 -47 13 -72 2 -24 6 -49 9 -55 4 -5 -3 -25 -14 -43 l-21 -32 -26
25 c-15 14 -40 48 -56 75 -17 27 -37 52 -45 54 -9 2 -30 33 -49 69 -30 60 -34
79 -46 219 -8 85 -19 172 -26 194 -14 48 -50 128 -61 136 -5 3 -20 39 -35 80
l-27 74 0 355 c-1 253 -5 378 -15 435 -31 182 -51 258 -109 425 -40 113 -46
182 -33 385 7 122 7 188 -1 235 -6 36 -10 105 -9 154 l2 89 49 51 c27 28 59
65 72 81 33 43 80 96 102 114 45 38 69 69 88 111 12 24 36 60 54 80 19 19 34
38 34 43 0 4 7 7 15 7 8 0 15 3 15 8 0 10 121 135 144 148 26 14 15 57 -20 73
-56 25 -159 -15 -240 -93 -31 -31 -61 -56 -65 -56 -5 0 -9 -6 -10 -12 0 -7
-16 -26 -36 -42 -41 -35 -43 -33 -74 64 -25 82 -19 177 21 300 21 64 29 116
35 208 l7 122 -65 0 c-50 0 -66 -4 -71 -16z m-576 -1954 c-27 -267 -31 -343
-30 -600 0 -342 3 -414 20 -515 25 -158 16 -500 -16 -607 -8 -27 -38 -22 -67
12 -30 33 -61 38 -95 14 -44 -30 -55 -13 -49 74 3 42 13 113 22 157 8 44 18
153 22 242 6 153 1 224 -27 453 -42 341 -50 704 -18 750 87 124 104 143 132
146 40 4 85 50 91 93 17 104 20 103 23 -4 2 -60 -2 -157 -8 -215z m8304 -510
c-7 -6 -24 22 -23 40 0 9 6 5 14 -10 7 -14 11 -27 9 -30z m-8 -30 c10 -27 22
-50 26 -50 4 0 8 -6 8 -14 0 -8 12 -24 28 -36 15 -12 27 -26 27 -31 0 -5 5
-13 10 -17 6 -4 17 -21 26 -37 9 -17 36 -61 60 -100 35 -58 44 -81 47 -131 4
-56 6 -62 37 -78 27 -15 34 -25 39 -62 3 -24 3 -52 -1 -61 -6 -16 -5 -16 9 -5
14 11 21 11 42 -3 14 -10 26 -21 26 -26 0 -24 30 8 36 37 7 38 8 39 55 22 46
-15 64 -44 65 -100 1 -26 7 -54 14 -63 7 -8 10 -22 6 -30 -5 -13 -9 -12 -26 5
-21 21 -50 27 -50 10 0 -5 8 -17 18 -27 35 -35 46 -70 33 -99 -13 -29 -6 -47
10 -24 8 11 9 10 4 -7 -4 -14 -2 -23 4 -23 6 0 11 4 11 10 0 5 12 -2 26 -15
15 -14 30 -25 34 -25 16 0 19 -45 5 -60 -8 -9 -15 -24 -15 -33 0 -8 -10 -17
-21 -19 -16 -2 -25 -15 -35 -48 -7 -24 -11 -46 -9 -49 3 -2 5 1 5 7 0 7 8 12
18 12 13 0 17 -9 18 -36 0 -20 6 -39 13 -43 9 -6 8 -11 -4 -21 -13 -11 -18
-10 -31 9 -9 12 -19 19 -24 16 -5 -3 -18 -1 -29 4 -14 8 -22 7 -32 -5 -12 -15
-11 -21 18 -100 5 -14 -39 -64 -55 -64 -7 0 -14 11 -18 25 -3 13 -12 29 -20
36 -16 13 -2 49 21 49 21 0 23 21 9 69 -7 25 -10 49 -7 55 4 5 8 31 9 57 1 26
10 58 19 73 17 25 16 28 -11 82 -17 33 -39 61 -56 70 -15 8 -28 20 -28 27 0 6
-11 22 -24 34 -26 25 -129 195 -141 233 -4 14 -13 32 -20 40 -7 8 -25 42 -40
75 -30 67 -51 95 -72 95 -52 0 -130 100 -145 185 -21 121 -22 119 11 167 17
25 31 55 31 67 0 37 17 23 36 -29z m-285 -351 c9 -17 8 -23 -2 -30 -22 -14
-69 -10 -85 5 -12 13 -12 17 2 30 23 24 71 20 85 -5z m-478 -124 c15 -13 27
-31 27 -40 0 -8 5 -15 11 -15 11 0 8 -84 -7 -167 -6 -31 -9 -33 -45 -33 -29 0
-39 4 -39 16 0 8 -7 22 -15 30 -8 9 -18 27 -22 42 -3 15 -10 29 -14 32 -5 3
-9 29 -10 57 -4 95 52 133 114 78z m-6253 -223 c0 -4 -5 -13 -12 -20 -18 -18
-28 -15 -28 8 0 13 7 20 20 20 11 0 20 -4 20 -8z m6080 -32 c0 -33 -3 -40 -20
-40 -17 0 -20 7 -20 40 0 33 3 40 20 40 17 0 20 -7 20 -40z m690 -84 c0 -7 20
-43 44 -80 25 -37 50 -89 56 -116 11 -47 25 -67 65 -94 18 -13 16 -14 -20 -14
-51 0 -151 51 -159 81 -3 12 1 28 9 37 16 18 18 96 2 125 -6 11 -10 26 -9 33
2 6 -2 12 -8 12 -5 0 -10 7 -10 15 0 8 7 15 15 15 8 0 15 -6 15 -14z m935 -21
c33 -32 33 -54 0 -47 -38 7 -67 72 -33 72 5 0 20 -11 33 -25z m-1505 0 c0 -11
-11 -15 -40 -15 -29 0 -40 4 -40 15 0 11 11 15 40 15 29 0 40 -4 40 -15z
m-323 -87 c-3 -7 -5 -2 -5 12 0 14 2 19 5 13 2 -7 2 -19 0 -25z m-20 -70 c-2
-13 -4 -3 -4 22 0 25 2 35 4 23 2 -13 2 -33 0 -45z m283 52 c0 -5 -4 -10 -10
-10 -5 0 -10 5 -10 10 0 6 5 10 10 10 6 0 10 -4 10 -10z m480 -9 c14 -27 13
-61 -3 -61 -18 0 -41 45 -34 64 9 22 24 20 37 -3z m-356 -46 c7 -27 -2 -84
-17 -102 -5 -7 -21 -13 -35 -13 -15 0 -39 -12 -55 -27 -28 -27 -29 -28 -40 -8
-27 45 -27 66 -1 75 31 12 31 28 -1 36 -19 5 -30 1 -43 -16 -15 -18 -21 -20
-45 -11 -29 11 -34 30 -17 62 8 15 22 19 61 19 44 0 51 -3 59 -25 12 -32 28
-32 36 -1 3 15 17 27 37 33 41 12 54 7 61 -22z m-379 -124 c6 -21 5 -22 -14
-12 -13 7 -21 22 -21 37 0 22 2 23 14 12 7 -8 17 -24 21 -37z m162 7 c-3 -8
-6 -5 -6 6 -1 11 2 17 5 13 3 -3 4 -12 1 -19z m30 0 c-3 -8 -6 -5 -6 6 -1 11
2 17 5 13 3 -3 4 -12 1 -19z m-101 -55 c-4 -4 -11 -1 -16 7 -16 25 -11 35 7
17 9 -9 13 -20 9 -24z m1024 27 c0 -5 -7 -10 -15 -10 -8 0 -15 5 -15 10 0 6 7
10 15 10 8 0 15 -4 15 -10z m108 -86 c30 -32 43 -74 23 -74 -9 0 -67 68 -97
115 l-19 30 30 -19 c17 -10 45 -34 63 -52z m-1014 -8 c33 -43 34 -61 4 -44
-41 23 -58 41 -58 60 0 29 25 21 54 -16z m1556 -6 c0 -13 -1 -13 -10 0 -5 8
-10 22 -10 30 0 13 1 13 10 0 5 -8 10 -22 10 -30z m-1361 -100 c26 -13 74
-107 60 -116 -20 -12 -101 88 -92 112 6 17 9 17 32 4z m-316 -90 c3 -11 1 -20
-4 -20 -5 0 -9 9 -9 20 0 11 2 20 4 20 2 0 6 -9 9 -20z m-7496 -257 c-2 -38
-3 -7 -3 67 0 74 1 105 3 68 2 -38 2 -98 0 -135z m7793 163 c0 -3 -4 -8 -10
-11 -5 -3 -10 -1 -10 4 0 6 5 11 10 11 6 0 10 -2 10 -4z m496 -51 c7 -18 -14
-75 -27 -75 -10 0 -12 73 -2 83 11 11 23 8 29 -8z m-678 -38 c4 -33 -32 -128
-65 -173 -13 -17 -23 -36 -23 -42 0 -18 -40 -14 -47 4 -3 8 1 32 9 52 9 20 24
64 34 96 28 90 85 128 92 63z m772 -22 c0 -8 -4 -15 -10 -15 -5 0 -10 7 -10
15 0 8 5 15 10 15 6 0 10 -7 10 -15z m-2987 -89 c4 -10 0 -12 -14 -9 -22 6
-26 23 -5 23 8 0 16 -6 19 -14z m-5386 -148 c-2 -13 -4 -3 -4 22 0 25 2 35 4
23 2 -13 2 -33 0 -45z m1113 -103 c0 -4 18 -27 40 -51 63 -69 49 -112 -35
-106 -24 2 -46 10 -49 17 -3 8 -2 54 1 104 6 90 6 90 24 66 11 -13 19 -26 19
-30z m-2443 -187 c-3 -8 -6 -5 -6 6 -1 11 2 17 5 13 3 -3 4 -12 1 -19z m2488
-50 c-4 -18 -12 -36 -19 -40 -16 -11 -27 -189 -13 -238 3 -14 18 -38 32 -54
14 -16 25 -32 25 -35 0 -4 -14 -15 -31 -25 -26 -15 -33 -16 -40 -5 -5 8 -9 20
-9 27 0 7 -11 18 -25 24 -41 18 -43 53 -13 211 9 51 12 55 24 40 9 -12 14 -14
15 -5 1 6 3 17 4 22 1 6 3 26 4 45 1 28 5 35 21 35 11 0 20 7 20 15 0 8 3 15
6 15 3 0 2 -15 -1 -32z m-2390 -69 c-9 -41 -43 -79 -70 -79 -33 0 -48 22 -35
54 5 15 10 39 10 52 0 31 23 56 43 48 8 -3 19 0 23 7 12 20 36 -48 29 -82z
m7972 39 c-3 -7 -5 -2 -5 12 0 14 2 19 5 13 2 -7 2 -19 0 -25z m-7977 -147
c14 -26 13 -114 -1 -128 -9 -9 -9 -23 0 -56 9 -40 8 -54 -15 -123 -14 -43 -29
-83 -33 -89 -5 -5 -11 -21 -14 -35 -5 -21 -51 -60 -71 -60 -11 0 -35 67 -41
115 -6 53 32 243 63 319 30 71 88 100 112 57z m7359 -170 c-11 -23 -25 -43
-30 -46 -4 -3 -2 7 6 22 8 15 15 33 15 39 0 11 22 36 27 30 2 -2 -6 -22 -18
-45z"/>
<path d="M10310 3456 c0 -8 5 -18 10 -21 6 -3 10 1 10 9 0 8 -4 18 -10 21 -5
3 -10 -1 -10 -9z"/>
<path d="M10345 3400 c3 -5 8 -10 11 -10 2 0 4 5 4 10 0 6 -5 10 -11 10 -5 0
-7 -4 -4 -10z"/>
<path d="M10740 2706 c0 -51 23 -74 35 -36 7 21 -10 60 -25 60 -6 0 -10 -11
-10 -24z"/>
<path d="M2900 1456 c0 -9 5 -16 10 -16 6 0 10 4 10 9 0 6 -4 13 -10 16 -5 3
-10 -1 -10 -9z"/>
<path d="M8920 4883 l39 -4 4 -77 3 -77 0 80 -1 80 -43 1 -42 1 40 -4z"/>
<path d="M28 3488 c-24 -24 -28 -38 -28 -84 0 -59 0 -59 65 -43 44 11 72 7
170 -22 24 -7 57 -9 78 -5 31 6 37 11 37 32 0 13 -7 27 -15 30 -8 4 -15 12
-15 20 0 8 -5 14 -10 14 -6 0 -20 11 -32 25 -12 14 -28 25 -35 25 -8 0 -31 9
-53 20 -25 13 -57 20 -87 19 -39 -1 -53 -7 -75 -31z"/>
<path d="M293 3054 c-47 -66 -50 -69 -89 -68 -43 0 -164 34 -164 47 0 4 -9 7
-20 7 -16 0 -20 -7 -20 -35 0 -21 8 -44 18 -55 16 -18 20 -18 46 -5 24 13 35
13 65 3 20 -6 43 -19 53 -27 26 -25 58 -90 48 -96 -14 -9 -12 -25 3 -25 7 0
22 7 33 15 19 14 19 15 -3 21 -16 4 -23 14 -23 31 0 29 27 73 46 73 20 0 17
-33 -5 -57 -22 -24 -18 -33 16 -33 12 0 23 -4 23 -10 0 -5 -5 -10 -11 -10 -6
0 -4 -7 5 -15 8 -8 19 -15 24 -15 5 0 13 -16 17 -36 6 -33 3 -39 -32 -71 -21
-18 -50 -37 -65 -40 -25 -5 -28 -10 -28 -49 0 -24 -4 -44 -9 -44 -5 0 -13 -9
-16 -20 -3 -11 -13 -20 -21 -20 -7 0 -19 -9 -26 -20 -15 -23 -38 -27 -38 -5 0
8 -7 15 -15 15 -8 0 -15 -7 -15 -15 0 -8 -6 -15 -14 -15 -7 0 -24 -15 -37 -34
-13 -19 -27 -32 -31 -30 -4 3 -8 1 -8 -5 0 -5 8 -12 18 -14 16 -4 16 -5 0 -6
-13 -1 -18 -10 -18 -32 0 -21 4 -29 13 -26 107 48 171 70 175 59 2 -7 15 -12
28 -12 20 0 24 5 24 28 0 35 34 108 54 115 8 3 27 3 43 -2 63 -16 69 -5 77
143 3 51 10 105 16 121 6 17 8 50 5 76 -4 27 -1 63 5 87 11 35 10 43 -6 66
-14 18 -28 25 -52 26 -18 0 -31 4 -28 9 3 4 -6 13 -19 19 -21 10 -27 8 -42
-14z"/>
<path d="M30 2730 c0 -5 7 -10 16 -10 8 0 12 5 9 10 -3 6 -10 10 -16 10 -5 0
-9 -4 -9 -10z"/>
<path d="M0 2680 c0 -40 0 -40 39 -40 33 0 40 -4 44 -22 l4 -23 2 22 c0 13 -7
27 -19 33 -11 6 -20 19 -20 30 0 16 -26 40 -44 40 -3 0 -6 -18 -6 -40z"/>
<path d="M370 2277 c-14 -7 -25 -20 -25 -30 0 -29 17 -24 36 11 10 17 18 32
16 32 -1 0 -13 -6 -27 -13z"/>
<path d="M6280 2084 c0 -8 5 -12 10 -9 6 4 8 11 5 16 -9 14 -15 11 -15 -7z"/>
<path d="M6355 2018 c-6 -19 -8 -20 -12 -5 -5 21 -23 23 -23 2 0 -8 10 -20 23
-26 12 -6 29 -19 39 -29 9 -9 35 -20 57 -24 23 -3 41 -11 41 -17 0 -5 4 -8 8
-5 5 3 19 -4 31 -15 12 -12 24 -19 26 -17 3 2 0 32 -6 66 -11 60 -12 62 -48
71 -20 5 -45 9 -56 9 -11 0 -32 4 -46 7 -22 6 -28 3 -34 -17z m142 -55 c-3
-10 -5 -4 -5 12 0 17 2 24 5 18 2 -7 2 -21 0 -30z"/>
<path d="M6836 1775 c4 -8 17 -15 30 -15 17 0 22 4 18 15 -4 8 -17 15 -30 15
-17 0 -22 -4 -18 -15z"/>
</g>
</svg>
