<?xml version="1.0" standalone="no"?>
<!DOCTYPE svg PUBLIC "-//W3C//DTD SVG 20010904//EN"
 "http://www.w3.org/TR/2001/REC-SVG-20010904/DTD/svg10.dtd">
<svg version="1.0" xmlns="http://www.w3.org/2000/svg"
 width="192.000000pt" height="192.000000pt" viewBox="0 0 192.000000 192.000000"
 preserveAspectRatio="xMidYMid meet">

<g transform="translate(0.000000,192.000000) scale(0.100000,-0.100000)"
fill="#000000" stroke="none">
<path d="M1569 1447 c-69 -26 -135 -88 -184 -173 -16 -29 -21 -31 -49 -23 -72
21 -91 -4 -33 -43 l34 -22 -24 -68 c-13 -38 -27 -91 -30 -118 -6 -55 -30 -84
-77 -96 -26 -6 -28 -5 -22 12 15 40 18 104 6 134 -16 39 -37 50 -95 50 -40 0
-52 -5 -81 -34 -30 -30 -34 -40 -34 -85 0 -53 16 -97 45 -121 23 -19 2 -30
-57 -30 -39 0 -50 4 -72 31 -31 36 -34 90 -11 146 31 73 92 113 173 113 26 0
57 6 67 14 18 13 18 15 -14 34 -64 39 -167 39 -241 2 -72 -37 -139 -136 -140
-206 0 -17 -8 -38 -17 -46 -25 -22 -123 -70 -123 -60 0 4 9 48 20 97 48 224
73 400 60 425 -22 40 -68 55 -180 55 -120 0 -188 -19 -248 -71 -60 -51 -22
-68 88 -39 67 18 170 19 193 3 15 -12 14 -21 -14 -103 -32 -95 -69 -252 -89
-371 l-11 -72 -77 -27 c-94 -34 -147 -60 -190 -92 -27 -21 -32 -30 -32 -68 0
-60 32 -97 106 -120 153 -48 267 27 335 220 16 47 22 53 100 96 73 40 85 44
93 30 32 -57 82 -88 158 -97 69 -8 126 8 182 51 39 29 53 34 96 34 30 -1 59 5
73 14 24 15 25 15 48 -21 31 -48 76 -72 144 -79 67 -7 135 16 166 55 19 25 26
27 78 24 50 -3 60 -1 83 22 38 39 53 81 40 111 -16 34 -23 32 -61 -15 -21 -26
-40 -40 -55 -40 -25 0 -36 18 -57 100 -19 76 -36 100 -69 100 -19 0 -35 -9
-49 -26 -33 -42 -35 -61 -7 -97 47 -61 28 -147 -32 -147 -26 0 -50 23 -58 57
-11 41 2 184 21 245 l18 56 60 7 c162 18 259 104 227 200 -21 65 -107 99 -181
72z m76 -107 c13 -40 -38 -86 -117 -105 -35 -9 -35 1 -3 46 53 72 107 99 120
59z m-516 -348 c0 -15 -4 -36 -8 -47 -8 -19 -8 -19 -19 2 -15 28 -15 56 0 71
16 16 28 5 27 -26z m-739 -316 c0 -2 -7 -23 -15 -47 -30 -83 -73 -106 -135
-74 -32 17 -39 45 -16 64 7 6 44 22 82 36 69 24 84 28 84 21z"/>
</g>
</svg>
